<?xml version="1.0" standalone="no"?>
<!DOCTYPE svg PUBLIC "-//W3C//DTD SVG 20010904//EN"
 "http://www.w3.org/TR/2001/REC-SVG-20010904/DTD/svg10.dtd">
<svg version="1.0" xmlns="http://www.w3.org/2000/svg"
 width="2000.000000pt" height="2000.000000pt" viewBox="0 0 2000.000000 2000.000000"
 preserveAspectRatio="xMidYMid meet">

<g transform="translate(0.000000,2000.000000) scale(0.100000,-0.100000)"
fill="#000000" stroke="none">
<path d="M9654 15372 c-165 -98 -359 -211 -430 -253 -71 -42 -147 -87 -169
-99 -75 -42 -469 -273 -592 -347 -68 -40 -125 -73 -127 -73 -2 0 -44 -24 -93
-54 -48 -29 -164 -97 -258 -151 -93 -53 -174 -101 -180 -105 -12 -10 -311
-182 -385 -223 -30 -16 -62 -35 -70 -42 -8 -6 -80 -49 -160 -95 -130 -74 -268
-155 -310 -180 -41 -24 -430 -252 -535 -313 -66 -38 -141 -82 -166 -98 l-46
-29 3 -1693 c4 -1756 8 -2214 17 -2224 7 -6 37 11 237 142 153 99 435 281 468
300 9 6 42 26 72 46 102 67 290 184 368 228 42 24 142 82 221 129 l144 85 -5
1058 c-2 582 -2 1062 1 1067 3 5 32 23 63 40 31 17 137 78 235 135 98 57 194
114 213 125 222 128 340 198 362 213 14 11 29 19 32 19 3 0 35 18 71 40 36 22
67 40 70 40 2 0 51 28 108 63 110 65 117 69 263 153 51 29 148 87 217 128 70
42 129 76 132 76 4 0 25 13 48 28 23 16 56 36 72 44 27 13 249 142 378 219 27
16 53 29 59 29 13 0 180 -92 338 -185 58 -34 128 -75 155 -90 28 -16 82 -46
120 -68 39 -22 93 -52 120 -67 28 -15 84 -47 125 -72 41 -24 134 -77 205 -117
72 -40 157 -88 190 -108 56 -32 99 -57 215 -121 25 -14 92 -53 150 -87 96 -56
137 -80 270 -153 25 -14 97 -55 160 -92 63 -37 154 -89 202 -115 72 -40 87
-52 92 -78 3 -16 6 -494 6 -1061 0 -970 1 -1032 18 -1046 9 -9 96 -60 192
-114 96 -55 227 -130 290 -167 63 -37 167 -96 230 -131 63 -36 175 -100 248
-142 73 -42 134 -76 136 -76 2 0 93 -52 201 -115 108 -63 198 -115 201 -115 6
0 5 2027 -3 3001 l-6 876 -46 23 c-25 13 -57 31 -71 40 -14 9 -54 33 -90 52
-36 19 -121 68 -190 108 -69 40 -147 85 -175 100 -56 30 -490 279 -573 329
-29 17 -55 31 -57 31 -2 0 -38 20 -79 45 -42 25 -78 45 -80 45 -2 0 -70 39
-152 87 -82 47 -183 105 -224 128 -135 76 -213 120 -320 182 -58 33 -127 73
-155 88 -27 15 -90 51 -140 80 -49 29 -126 72 -170 97 -70 40 -233 133 -275
158 -26 16 -143 82 -190 108 -25 13 -70 39 -100 57 -105 61 -261 150 -288 164
-15 8 -128 72 -251 143 -123 70 -231 128 -240 127 -9 0 -151 -80 -317 -177z"/>
<path d="M14400 12192 l0 -870 188 -107 c213 -122 555 -317 684 -390 71 -41
87 -54 92 -78 3 -16 6 -350 6 -742 l0 -713 -24 -16 c-24 -15 -47 -28 -146 -84
-25 -14 -68 -40 -97 -59 -29 -18 -54 -33 -57 -33 -3 0 -72 -40 -153 -88 -81
-49 -224 -133 -318 -187 -157 -90 -299 -173 -335 -195 -120 -74 -141 -82 -173
-69 -29 12 -573 320 -802 454 -49 29 -117 67 -150 85 -33 18 -248 141 -478
272 -231 132 -425 237 -433 234 -8 -3 -96 -54 -197 -113 -100 -58 -199 -116
-219 -127 -20 -12 -83 -49 -140 -82 -57 -34 -206 -122 -333 -196 -126 -74
-254 -149 -283 -166 -29 -18 -54 -32 -56 -32 -4 0 -219 -128 -245 -146 -22
-16 -23 -17 -5 -27 11 -5 55 -31 99 -57 44 -26 100 -58 125 -72 170 -95 604
-341 805 -458 55 -32 222 -126 370 -211 149 -84 361 -205 472 -268 111 -64
298 -171 415 -237 117 -67 292 -166 388 -221 96 -55 202 -115 235 -133 33 -18
77 -44 97 -57 21 -12 40 -23 43 -23 3 0 34 -17 68 -39 96 -59 245 -141 258
-141 7 0 46 20 88 44 42 24 92 53 111 64 19 11 135 79 257 151 122 72 225 131
228 131 4 0 21 11 38 24 18 13 50 33 72 45 101 54 175 97 187 109 6 6 16 12
20 12 5 0 26 11 48 25 22 14 113 67 202 119 90 51 213 122 273 158 257 151
370 217 535 313 96 56 204 120 240 142 36 22 90 53 120 70 57 32 267 153 333
192 l37 23 0 1612 0 1611 -191 110 c-106 61 -213 122 -238 136 -45 25 -1004
572 -1685 961 -191 110 -354 202 -362 205 -12 4 -14 -123 -14 -865z"/>
<path d="M5555 13016 c-11 -7 -81 -48 -155 -91 -130 -75 -371 -216 -570 -333
-52 -31 -111 -65 -130 -76 -19 -10 -82 -47 -140 -81 -235 -138 -752 -441 -800
-467 -52 -29 -269 -157 -310 -183 -19 -12 -66 -40 -105 -61 -38 -22 -94 -54
-125 -72 -30 -18 -69 -40 -87 -49 l-32 -16 6 -1091 c3 -600 8 -1329 12 -1620
l6 -528 199 -114 c110 -63 201 -114 203 -114 2 0 21 -11 43 -25 22 -14 64 -38
92 -54 86 -47 196 -110 311 -177 59 -35 109 -64 112 -64 3 0 26 -13 52 -28 27
-16 91 -53 143 -82 52 -29 139 -80 193 -112 54 -32 100 -58 104 -58 3 0 42
-22 87 -48 87 -52 426 -247 473 -272 15 -8 65 -36 111 -63 45 -26 117 -67 160
-91 71 -40 238 -136 272 -156 84 -50 237 -133 245 -133 10 0 127 67 409 232
76 44 140 81 142 81 4 0 251 146 314 185 19 12 71 43 115 67 44 25 96 55 115
66 41 23 645 376 775 453 50 29 158 92 242 141 83 48 165 95 181 105 17 10
116 67 219 127 103 60 223 131 265 158 43 26 80 48 83 48 2 0 37 20 77 43 111
66 498 292 538 313 52 29 231 134 260 154 14 9 48 29 75 45 57 31 446 257 549
318 38 23 81 48 96 57 87 50 306 177 329 191 14 9 70 41 124 72 287 166 460
268 677 396 159 94 213 126 248 143 l22 11 0 727 c0 400 -3 795 -7 879 -6 137
-8 150 -22 138 -9 -8 -128 -79 -266 -159 -425 -247 -542 -315 -1120 -653 -308
-180 -576 -336 -595 -347 -19 -11 -73 -43 -120 -70 -102 -61 -143 -84 -470
-273 -140 -81 -268 -156 -285 -165 -16 -10 -77 -46 -135 -80 -139 -83 -258
-152 -470 -275 -96 -56 -323 -189 -505 -295 -181 -106 -373 -217 -425 -248
-52 -30 -160 -92 -240 -139 -80 -46 -152 -88 -160 -93 -8 -4 -103 -60 -210
-123 -107 -63 -338 -198 -513 -301 l-319 -186 -41 24 c-23 13 -122 69 -219
124 -98 56 -204 116 -235 133 -32 18 -75 43 -95 56 -21 12 -39 23 -42 23 -2 0
-55 30 -117 66 -63 37 -139 80 -169 97 -30 16 -59 33 -65 37 -5 4 -35 21 -65
38 -80 45 -213 120 -227 129 -9 6 -14 184 -19 744 l-7 736 44 30 c42 28 193
117 304 178 28 15 88 51 135 80 47 29 105 63 129 76 24 13 52 29 62 35 10 6
79 46 153 90 l136 79 0 878 c0 482 -1 877 -3 877 -1 0 -11 -6 -22 -14z"/>
<path d="M8210 11264 l0 -626 33 20 c17 11 111 66 207 121 96 56 182 106 190
111 8 5 67 39 130 77 63 37 119 70 125 72 5 2 26 14 45 26 19 12 67 39 105 60
39 21 77 43 85 50 8 6 48 30 88 54 39 23 72 43 72 45 0 4 -320 188 -435 251
-27 15 -75 42 -105 60 -30 18 -75 44 -100 57 -25 14 -106 60 -180 103 -74 42
-163 93 -197 111 l-63 34 0 -626z"/>
<path d="M11695 7184 c-77 -46 -151 -90 -165 -97 -23 -13 -214 -124 -380 -222
-36 -21 -119 -70 -185 -108 -66 -38 -178 -104 -250 -147 -71 -42 -184 -108
-250 -146 -66 -38 -128 -73 -137 -79 -9 -5 -63 -37 -120 -69 -57 -33 -124 -72
-150 -88 l-47 -29 -238 136 c-131 76 -256 147 -278 159 -85 47 -934 532 -1010
577 -44 26 -130 75 -192 109 l-112 60 -113 -73 c-62 -40 -144 -93 -183 -118
-38 -24 -98 -63 -132 -86 -35 -24 -65 -43 -68 -43 -3 0 -72 -44 -155 -97 -82
-54 -209 -136 -282 -183 -72 -47 -181 -116 -240 -155 -59 -38 -142 -92 -184
-119 -41 -26 -74 -49 -72 -51 7 -6 284 -164 433 -248 88 -49 184 -105 213
-123 29 -19 55 -34 57 -34 3 0 117 -64 253 -142 136 -78 265 -151 287 -163 22
-12 130 -74 240 -137 110 -63 220 -126 245 -140 25 -14 106 -60 180 -103 74
-42 160 -91 190 -108 30 -17 71 -40 91 -51 20 -12 99 -57 175 -100 77 -43 191
-110 255 -147 64 -38 125 -72 135 -75 10 -4 26 -13 34 -19 8 -7 47 -30 85 -50
39 -21 95 -52 125 -70 293 -173 262 -159 302 -137 18 11 236 137 483 282 248
145 531 310 630 368 99 57 245 142 325 189 290 171 697 410 1010 591 52 30
112 66 133 79 21 13 52 32 70 42 81 45 303 174 312 181 17 12 267 156 313 179
23 12 42 25 42 29 0 4 -26 21 -58 38 -31 17 -115 65 -187 106 -140 82 -595
341 -685 391 -30 17 -72 41 -92 54 -21 13 -39 23 -41 23 -2 0 -102 56 -222
125 -120 69 -225 125 -234 124 -9 0 -79 -38 -156 -85z"/>
</g>
</svg>
